<?xml version="1.0" standalone="no"?>
<!DOCTYPE svg PUBLIC "-//W3C//DTD SVG 20010904//EN"
 "http://www.w3.org/TR/2001/REC-SVG-20010904/DTD/svg10.dtd">
<svg version="1.0" xmlns="http://www.w3.org/2000/svg"
 width="640.000000pt" height="640.000000pt" viewBox="0 0 640.000000 640.000000"
 preserveAspectRatio="xMidYMid meet">

<g transform="translate(0.000000,640.000000) scale(0.100000,-0.100000)"
fill="#000000" stroke="none">
<path d="M2660 5393 c-29 -11 -50 -36 -56 -69 -4 -23 18 -134 75 -376 76 -319
84 -345 112 -370 36 -34 85 -37 123 -7 48 38 49 57 12 217 -78 331 -127 529
-138 555 -17 44 -79 68 -128 50z"/>
<path d="M3774 5353 c-39 -7 -65 -49 -94 -149 -117 -411 -160 -570 -160 -601
0 -46 45 -93 90 -93 41 0 87 27 99 59 23 61 191 670 191 694 0 52 -68 101
-126 90z"/>
<path d="M1649 4871 c-23 -23 -29 -38 -29 -71 0 -35 7 -48 48 -93 26 -29 133
-144 237 -257 103 -113 197 -213 209 -222 60 -49 156 1 156 82 0 35 -7 48 -48
93 -27 29 -131 142 -231 252 -101 110 -195 210 -210 222 -39 34 -95 31 -132
-6z"/>
<path d="M4700 4773 c-8 -3 -129 -118 -268 -257 -170 -169 -256 -262 -263
-284 -24 -72 56 -148 129 -121 31 12 506 481 528 521 23 44 17 77 -20 114 -33
33 -66 41 -106 27z"/>
<path d="M3800 3969 c-303 -82 -873 -236 -1500 -403 -564 -151 -547 -146 -571
-172 -29 -31 -29 -92 -1 -131 11 -15 100 -106 196 -202 150 -149 174 -177 164
-190 -7 -9 -226 -230 -487 -491 -578 -578 -561 -560 -561 -608 0 -35 17 -54
378 -414 369 -370 378 -378 417 -378 39 0 48 8 572 532 293 293 534 530 537
528 3 -3 92 -92 199 -197 190 -189 195 -193 236 -193 23 0 51 5 61 10 36 19
21 -30 235 770 64 239 179 668 256 952 76 285 139 527 139 539 0 32 -62 89
-96 88 -16 0 -94 -18 -174 -40z"/>
<path d="M5035 3885 c-82 -23 -231 -66 -330 -93 -204 -58 -225 -71 -225 -143
0 -31 7 -47 29 -70 44 -44 14 -49 461 77 107 30 219 62 249 70 68 19 101 54
101 106 0 30 -7 46 -29 69 -40 39 -72 37 -256 -16z"/>
<path d="M4574 2980 c-33 -13 -54 -50 -54 -95 0 -66 24 -81 202 -125 411 -102
543 -131 568 -125 33 7 66 41 75 76 9 35 -18 96 -47 109 -29 13 -688 170 -708
169 -8 0 -25 -4 -36 -9z"/>
<path d="M4243 2299 c-43 -12 -63 -44 -63 -97 0 -52 -27 -23 299 -322 122
-113 232 -210 244 -217 83 -47 181 51 134 133 -7 12 -52 59 -102 105 -49 45
-142 130 -205 189 -176 163 -229 210 -239 210 -5 0 -15 2 -23 4 -7 2 -27 0
-45 -5z"/>
</g>
</svg>
