<svg width="31" height="30" viewBox="0 0 31 30" fill="none" xmlns="http://www.w3.org/2000/svg">
<path d="M29.8742 26.0276L21.9361 18.2483C21.5581 17.8759 21.1381 17.669 20.6761 17.6276L20.2141 17.1724C21.6421 15.2276 22.4401 12.9931 22.4401 10.6759C22.4401 4.8 17.5681 0 11.604 0C5.68198 0.0413793 0.809937 4.84138 0.809937 10.6759C0.809937 16.5517 5.68198 21.3517 11.646 21.3517C13.8301 21.3517 15.8041 20.7724 17.5261 19.6138L17.9881 20.069C18.0301 20.6069 18.2401 21.1034 18.6181 21.4759L26.5982 29.3379C27.0182 29.7931 27.6062 30 28.2362 30C28.8242 30 29.4542 29.7517 29.8742 29.3379C30.2942 28.9241 30.5462 28.3034 30.5462 27.6828C30.5882 27.0621 30.3362 26.4414 29.8742 26.0276ZM11.52 17.3793C7.782 17.3793 4.71597 14.3586 4.71597 10.6759C4.71597 6.9931 7.782 3.97241 11.52 3.97241C15.3421 3.97241 18.3241 6.95172 18.3241 10.6759C18.3241 14.4 15.2581 17.3793 11.52 17.3793Z" fill="#373770"/>
</svg>
